<svg width="12" height="12" viewBox="0 0 12 12" fill="none" xmlns="http://www.w3.org/2000/svg">
<path d="M5.83371 0C6.08685 0 6.29608 0.188009 6.32924 0.432052L6.33382 0.499898L6.33462 5.33333H11.17C11.4462 5.33333 11.67 5.55719 11.67 5.83333C11.67 6.08646 11.4819 6.29566 11.2379 6.32877L11.17 6.33333H6.33462L6.33598 11.1661C6.33604 11.4422 6.11223 11.6662 5.83609 11.6662C5.58295 11.6662 5.37372 11.4782 5.34056 11.2341L5.33598 11.1663L5.33462 6.33333H0.501953C0.225811 6.33333 0.00195312 6.10948 0.00195312 5.83333C0.00195312 5.5802 0.190056 5.37101 0.434106 5.3379L0.501953 5.33333H5.33462L5.33382 0.500102C5.33376 0.223959 5.55757 0 5.83371 0Z" fill="#408CFF"/>
</svg>
