<svg width="12" height="12" viewBox="0 0 12 12" fill="none" xmlns="http://www.w3.org/2000/svg">
<path d="M0.932019 1.03602L0.980431 0.979943C1.15794 0.802432 1.43572 0.786294 1.63146 0.931531L1.68754 0.979943L6.00065 5.29283L10.3138 0.979943C10.509 0.784681 10.8256 0.784681 11.0209 0.979943C11.2161 1.1752 11.2161 1.49179 11.0209 1.68705L6.70798 6.00016L11.0209 10.3133C11.1984 10.4908 11.2145 10.7686 11.0693 10.9643L11.0209 11.0204C10.8434 11.1979 10.5656 11.214 10.3698 11.0688L10.3138 11.0204L6.00065 6.7075L1.68754 11.0204C1.49228 11.2156 1.17569 11.2156 0.980431 11.0204C0.785169 10.8251 0.785169 10.5085 0.980431 10.3133L5.29332 6.00016L0.980431 1.68705C0.80292 1.50954 0.786783 1.23176 0.932019 1.03602L0.980431 0.979943L0.932019 1.03602Z" fill="#F34161"/>
</svg>
