<svg width="24" height="24" viewBox="0 0 24 24" fill="none" xmlns="http://www.w3.org/2000/svg">
<path fill-rule="evenodd" clip-rule="evenodd" d="M5.5 18C5.5 17.7239 5.72386 17.5 6 17.5H18C18.2761 17.5 18.5 17.7239 18.5 18C18.5 18.2761 18.2761 18.5 18 18.5H6C5.72386 18.5 5.5 18.2761 5.5 18Z" fill="#449ADC" stroke="#39B7ED" stroke-linecap="round" stroke-linejoin="round"/>
<path fill-rule="evenodd" clip-rule="evenodd" d="M7.64645 10.6464C7.84171 10.4512 8.15829 10.4512 8.35355 10.6464L12 14.2929L15.6464 10.6464C15.8417 10.4512 16.1583 10.4512 16.3536 10.6464C16.5488 10.8417 16.5488 11.1583 16.3536 11.3536L12.3536 15.3536C12.1583 15.5488 11.8417 15.5488 11.6464 15.3536L7.64645 11.3536C7.45118 11.1583 7.45118 10.8417 7.64645 10.6464Z" fill="#449ADC" stroke="#39B7ED" stroke-linecap="round" stroke-linejoin="round"/>
<path fill-rule="evenodd" clip-rule="evenodd" d="M12 4.5C12.2761 4.5 12.5 4.72386 12.5 5V15C12.5 15.2761 12.2761 15.5 12 15.5C11.7239 15.5 11.5 15.2761 11.5 15V5C11.5 4.72386 11.7239 4.5 12 4.5Z" fill="#449ADC" stroke="#39B7ED" stroke-linecap="round" stroke-linejoin="round"/>
</svg>
