<svg width="14" height="14" viewBox="0 0 14 14" fill="none" xmlns="http://www.w3.org/2000/svg">
<path d="M13.0195 0.979981C13.9511 1.91162 13.9511 3.42211 13.0195 4.35375L5.04059 12.3326C4.856 12.5172 4.62644 12.6504 4.3746 12.7191L0.964142 13.6492C0.590893 13.751 0.248406 13.4086 0.350202 13.0353L1.28033 9.62485C1.34901 9.37301 1.48223 9.14345 1.66681 8.95887L9.6457 0.979981C10.5773 0.0483395 12.0878 0.0483395 13.0195 0.979981ZM8.99936 3.04058L2.37392 9.66597C2.31239 9.7275 2.26799 9.80402 2.24509 9.88797L1.54519 12.4543L4.11148 11.7544C4.19543 11.7315 4.27195 11.6871 4.33348 11.6255L10.9587 4.99992L8.99936 3.04058ZM10.3528 1.68709L9.70603 2.33325L11.6654 4.29325L12.3124 3.64665C12.8535 3.10553 12.8535 2.22821 12.3124 1.68709C11.7712 1.14597 10.8939 1.14597 10.3528 1.68709Z" fill="#2C3C55"/>
</svg>
