<svg width="15" height="15" viewBox="0 0 15 15" fill="none" xmlns="http://www.w3.org/2000/svg">
<path d="M2.74751 2.7725L3.3418 2.39067C3.89868 2.03288 4.63366 2.17302 5.05926 2.71815L5.90624 3.803C6.27532 4.27574 6.31787 4.93656 6.01143 5.43674L5.15867 6.82864C5.40321 7.459 5.79276 8.03984 6.32732 8.57116C6.86189 9.10248 7.4588 9.50211 8.11805 9.77004L9.36886 8.94398C9.84298 8.63086 10.4634 8.67845 10.9085 9.06207L11.9454 9.95576C12.4627 10.4017 12.5976 11.172 12.2609 11.7579L11.9 12.3857C11.5408 13.0107 10.8869 13.3777 10.1834 13.3491C8.5226 13.2817 6.73303 12.2399 4.81472 10.2236C2.89361 8.20446 1.9017 6.32037 1.839 4.57137C1.81262 3.83542 2.15823 3.15111 2.74751 2.7725Z" fill="#21C977"/>
<path fill-rule="evenodd" clip-rule="evenodd" d="M14.0091 1.45682C14.0796 1.52496 14.0804 1.63625 14.0109 1.70541L10.1257 5.57259C10.0921 5.60612 10.0461 5.625 9.99807 5.625C9.95008 5.625 9.90409 5.60612 9.87041 5.57259L8.02031 3.73108C7.95084 3.66192 7.95168 3.55063 8.02218 3.48249C8.09269 3.41435 8.20617 3.41517 8.27564 3.48433L9.99807 5.19877L13.7556 1.45866C13.8251 1.3895 13.9386 1.38868 14.0091 1.45682Z" fill="#21C977" stroke="#21C977" stroke-width="1.3" stroke-linecap="round" stroke-linejoin="round"/>
</svg>
