<svg width="15" height="15" viewBox="0 0 15 15" fill="none" xmlns="http://www.w3.org/2000/svg">
<path d="M9.72157 1.25L13.3623 1.25028L13.418 1.258L13.4727 1.27324L13.5082 1.28833C13.5516 1.3077 13.5922 1.33554 13.6279 1.3712L13.6505 1.39566L13.6747 1.42697L13.7036 1.47459L13.7259 1.52613L13.7414 1.58127L13.7486 1.63198L13.7484 1.63873L13.7497 1.65005L13.75 5.27859C13.75 5.50863 13.5635 5.69512 13.3334 5.69512C13.1224 5.69512 12.9481 5.53842 12.9205 5.33511L12.9167 5.27859L12.9165 2.67119L9.46133 6.12793C9.31345 6.27584 9.08199 6.28934 8.91885 6.1684L8.87211 6.12808C8.72415 5.98024 8.71065 5.74884 8.83163 5.58575L8.87196 5.53902L12.327 2.0825L9.72157 2.08305C9.51064 2.08305 9.33632 1.92635 9.30873 1.72305L9.30493 1.66653C9.30493 1.45566 9.46167 1.28138 9.66504 1.2538L9.72157 1.25Z" fill="#408CFF"/>
<path d="M2.74751 2.77219L3.3418 2.39036C3.89868 2.03257 4.63366 2.17272 5.05926 2.71785L5.90624 3.80269C6.27532 4.27543 6.31787 4.93625 6.01143 5.43644L5.15867 6.82833C5.40321 7.4587 5.79276 8.03954 6.32732 8.57086C6.86189 9.10218 7.4588 9.5018 8.11805 9.76973L9.36886 8.94367C9.84298 8.63056 10.4634 8.67815 10.9085 9.06177L11.9454 9.95546C12.4627 10.4014 12.5976 11.1717 12.2609 11.7576L11.9 12.3854C11.5408 13.0104 10.8869 13.3774 10.1834 13.3488C8.5226 13.2814 6.73303 12.2396 4.81472 10.2233C2.89361 8.20415 1.9017 6.32006 1.839 4.57107C1.81262 3.83512 2.15823 3.1508 2.74751 2.77219Z" fill="#408CFF"/>
</svg>
