<svg width="15" height="15" viewBox="0 0 15 15" fill="none" xmlns="http://www.w3.org/2000/svg">
<path d="M6.20307 1.28151L6.8513 1.40493C7.45873 1.52058 7.86665 2.08815 7.8045 2.73123L7.68084 4.01097C7.62695 4.56865 7.23085 5.04379 6.70156 5.18567L5.22867 5.5805C4.98903 6.16489 4.87949 6.80897 4.90007 7.51275C4.92064 8.21653 5.06814 8.87116 5.34258 9.47663L6.72134 9.7212C7.24396 9.8139 7.63379 10.2451 7.6887 10.7913L7.81662 12.0636C7.88044 12.6984 7.47649 13.3071 6.87157 13.4876L6.2233 13.681C5.57803 13.8735 4.89896 13.7017 4.44062 13.23C3.35856 12.1164 2.81585 10.2596 2.81245 7.65984C2.80912 5.05626 3.34852 3.14173 4.4307 1.91625C4.88607 1.4006 5.5603 1.15913 6.20307 1.28151ZM10.4352 4.46694L10.4877 4.51233L12.9856 7.01086C13.1519 7.17718 13.1671 7.43738 13.0312 7.62087L12.9858 7.67344L10.488 10.1756C10.3051 10.3588 10.0083 10.3591 9.82505 10.1762C9.65849 10.0099 9.64314 9.74949 9.77914 9.56586L9.82448 9.51325L11.5191 7.81499L7.50031 7.81558C7.263 7.81558 7.06688 7.63924 7.03584 7.41044L7.03156 7.34683C7.03156 7.10952 7.20791 6.9134 7.4367 6.88236L7.50031 6.87808L11.5259 6.87749L9.82472 5.17516C9.65833 5.00872 9.64323 4.7483 9.77941 4.56481L9.82481 4.51224C9.97275 4.36434 10.195 4.33598 10.3714 4.42715L10.4352 4.46694Z" fill="#9B5DE5"/>
</svg>
